PathFileType	4	(X/Y/Z)	C:/Users/beibeiliu/ov580/test_trc\sequence.32_training_dense_left.trc
DataRate	CameraRate	NumFrames	NumMarkers	Units	OrigDataRate	OrigDataStartFrame	OrigNumFrames
120	120	8	19	mm	120	76	200
Frame#	Time	ThumbCMC			ThumbMCP			ThumbIP			ThumbTip			IndexMCP			IndexPIP			IndexTip			MiddleMCP			MiddlePIP			MiddleTip			RingMCP			RingPIP			RingTip			PinkyMCP			PinkyPIP			PinkyTip			BackHand1			BackHand2			BackHand3	
		X0	Y0	Z0	X1	Y1	Z1	X2	Y2	Z2	X3	Y3	Z3	X4	Y4	Z4	X5	Y5	Z5	X6	Y6	Z6	X7	Y7	Z7	X8	Y8	Z8	X9	Y9	Z9	X10	Y10	Z10	X11	Y11	Z11	X12	Y12	Z12	X13	Y13	Z13	X14	Y14	Z14	X15	Y15	Z15	X16	Y16	Z16	X17	Y17	Z17	X18	Y18	Z18	
75	0.625	-146.279	59.7142	45.9842	-134.017	48.5896	23.216	-122.762	46.1886	4.37288	-114.203	40.2675	-13.2274	-155.862	80.1381	-17.2551	-148.868	76.6435	-43.6075	-139.012	69.0057	-63.0762	-174.985	78.8341	-24.5538	-175.858	74.0891	-50.5337	-171.08	58.9323	-76.5666	-195.816	67.0726	-19.8872	-190.566	61.3262	-44.5931	-186.198	41.9562	-63.7717	-210.699	55.4888	-7.02118	-216.209	49.0599	-26.4748	-209.15	41.1794	-47.6988	-194.522	73.0774	23.7499	-196.128	72.3874	54.5543	-174.109	79.7723	41.6405	
76	0.633333	-144.922	59.7813	42.5541	-131.265	48.3993	23.7303	-124.587	45.6151	1.55291	-111.201	40.6114	-14.6989	-150.907	79.0863	-15.375	-144.89	78.7893	-42.0383	-141.834	70.3767	-63.6158	-174.839	73.8327	-28.9388	-174.954	64.854	-53.88	-166.561	45.9846	-72.2142	-190.643	62.2245	-21.3737	-189.599	47.3875	-47.1881	-180.995	28.2966	-55.5655	-212.146	49.5534	-10.6038	-212.918	41.1656	-28.5805	-203.206	26.5702	-49.1371	-195.72	68.232	26.1573	-200.453	70.0956	47.9856	-174.294	79.0781	35.1039	
77	0.641667	-148.523	58.7048	41.736	-133.172	48.1257	19.3457	-120.783	43.1047	-0.173326	-112.919	37.6734	-17.0392	-155.487	78.706	-19.7854	-148.016	78.1712	-46.5071	-143.001	66.6656	-69.2727	-176.655	75.936	-28.6851	-176.572	68.5022	-54.4709	-172.635	43.3289	-71.5742	-194.639	62.6673	-24.3319	-192.417	48.6601	-49.1915	-181.149	27.0647	-57.3836	-211.197	49.6723	-14.2794	-210.939	37.9677	-33.2889	-199.309	25.1813	-44.6195	-198.363	70.0136	22.0327	-198.922	67.7918	48.0187	-175.114	78.2424	32.9353	
78	0.65	-142.749	55.3739	39.0215	-131.927	42.3642	13.8799	-124.17	34.8879	-4.17261	-120.264	27.2138	-23.396	-153.436	76.6708	-24.8954	-146.781	75.1321	-48.2526	-143.371	60.0281	-68.5265	-181.419	76.4385	-26.5673	-179.964	70.3197	-59.478	-174.302	47.8854	-74.0829	-195.542	67.4166	-20.6017	-198.19	58.7415	-50.0132	-189.372	40.045	-60.9225	-210.875	52.1954	-10.614	-212.552	41.1493	-35.688	-202.592	26.2946	-47.091	-193.198	67.8362	23.2212	-194.819	67.8384	45.2942	-168.776	75.3454	32.3291	
79	0.658333	-143.855	52.8554	33.7989	-131.892	37.5699	12.2639	-122.937	28.7709	-8.0601	-121.701	19.4716	-27.2241	-155.809	74.9643	-25.8944	-151.124	69.1728	-55.3099	-145.931	54.1111	-70.5562	-182.098	78.2683	-29.1825	-181.984	75.9334	-56.7805	-182.262	51.1224	-74.6213	-196.723	73.1742	-23.7346	-201.773	66.9372	-48.3674	-194.453	50.6412	-64.6456	-212.942	57.4761	-10.6524	-219.641	51.741	-31.8696	-210.764	36.3387	-47.6486	-194.443	67.7696	22.6296	-191.935	71.1856	44.2177	-168.219	76.861	30.1242	
80	0.666667	-143.733	51.8829	32.9202	-128.844	36.1323	14.1854	-126.663	29.4696	-9.59849	-125.295	18.8563	-26.9784	-153.566	75.2664	-30.6873	-151.7	66.4055	-56.7876	-146.639	45.5301	-71.1785	-180.205	79.0123	-29.856	-183.956	75.5048	-59.3246	-182.192	53.4437	-76.0386	-193.849	74.4209	-19.217	-198.293	75.9087	-44.0567	-195.944	59.7684	-67.3424	-215.96	64.4844	-6.83267	-218.418	65.5069	-26.5546	-220.937	54.4607	-47.3547	-194.103	72.431	18.2428	-186.989	70.6576	45.3334	-164.892	75.8324	30.7764	
81	0.675	-136.628	49.4637	35.7579	-125.566	36.1554	13.3412	-120.224	30.2886	-8.42619	-120.185	20.171	-26.6204	-149.5	69.0832	-28.0508	-149.6	62.4991	-53.6703	-149.457	39.0554	-70.1422	-173.113	75.2897	-31.2952	-176.391	72.5175	-59.3194	-184.088	51.1092	-78.8103	-193.302	72.1418	-17.9984	-199.883	76.5175	-41.7937	-197.645	66.2407	-69.0079	-208.205	66.1766	-5.22998	-217.347	72.7284	-20.7275	-228.229	70.757	-41.5305	-190.614	68.8649	21.2789	-188.693	68.3609	45.0485	-162.235	72.2654	29.9753	
82	0.683333	-136.853	45.4272	37.0597	-125.996	32.884	18.8298	-119.207	26.531	-6.9718	-118.717	19.6375	-26.0179	-145.372	61.9697	-27.9659	-143.074	53.8478	-52.186	-146.013	34.0695	-69.372	-172.133	66.4591	-28.1722	-175.755	63.1804	-60.2395	-181.832	47.5703	-81.7112	-191.57	65.7375	-19.3222	-199.373	68.6072	-41.7643	-197.178	64.8717	-66.3239	-206.217	56.3933	-0.650796	-217.853	66.7307	-15.4739	-227.55	71.868	-31.7508	-185.226	64.4605	18.5196	-183.895	65.438	45.6813	-161.909	68.2637	32.6566	
